<svg xmlns="http://www.w3.org/2000/svg" fill="none" viewBox="0 0 128 128">
  <g>
    <path id="flame"
       d="M47.7 107.1c-5.5-5-7.2-15.7-4.9-23.4 4 4.9 9.6 6.4 15.4 7.3 8.9 1.3 17.6.8 25.9-3.2l2.8-1.7a18 18 0 0 1-7.2 20l-5.5 3.8c-5.6 3.8-7.2 8.2-5 14.7l.2.7a14 14 0 0 1-6.6-5.6 15.8 15.8 0 0 1-2.6-8.6c0-1.5 0-3-.2-4.5-.5-3.7-2.2-5.3-5.5-5.4-3.3-.1-5.9 2-6.6 5.2l-.2.7Z" />
    <path
       d="m 79.022978,22.629889 c 0,0 -11.399518,5.534627 -22.802016,5.540771 l -8.554888,26.472233 c -0.344785,1.382307 -1.242717,2.212064 -2.279308,2.212623 -1.105696,5.95e-4 -2.073665,-0.897262 -2.350797,-2.210128 L 34.452558,28.18239 C 20.907773,28.18969 11.644584,22.666194 11.644584,22.666194 l 19.377993,52.510168 c 0.553704,1.589142 1.52171,2.556105 2.765619,2.555435 l 23.150525,-0.01247 c 1.243909,-6.71e-4 2.141766,-0.968639 2.762865,-2.558414 z" />
    <path
       d="m 119.87169,22.661389 c 0,0 -11.39951,5.534627 -22.802011,5.540771 l -8.554888,26.472233 c -0.344785,1.382307 -1.242717,2.212064 -2.279308,2.212623 -1.105696,5.95e-4 -2.073665,-0.897262 -2.350797,-2.210128 L 75.301275,28.21389 C 61.75649,28.22119 52.493301,22.697694 52.493301,22.697694 l 19.377993,52.510168 c 0.553704,1.589142 1.52171,2.556105 2.765619,2.555435 l 23.150525,-0.01247 c 1.243909,-6.71e-4 2.141766,-0.968639 2.762862,-2.558414 z" />
  </g>
  <path
     fill="url(#a)"
     d="M47.7 107.1c-5.5-5-7.2-15.7-4.9-23.4 4 4.9 9.6 6.4 15.4 7.3 8.9 1.3 17.6.8 25.9-3.2l2.8-1.7a18 18 0 0 1-7.2 20l-5.5 3.8c-5.6 3.8-7.2 8.2-5 14.7l.2.7a14 14 0 0 1-6.6-5.6 15.8 15.8 0 0 1-2.6-8.6c0-1.5 0-3-.2-4.5-.5-3.7-2.2-5.3-5.5-5.4-3.3-.1-5.9 2-6.6 5.2l-.2.7Z"
     id="path3" />
  <defs>
    <linearGradient id="a" x1="64.7" x2="77.4" y1="119.2" y2="77.4" gradientUnits="userSpaceOnUse">
      <stop stop-color="#D83333" />
      <stop offset="1" stop-color="#F041FF" />
    </linearGradient>
  </defs>

  <style>
    g {
      fill: #000;
    }

    @media (prefers-color-scheme: dark) {
      g {
        fill: #FFF;
      }
    }
  </style>
</svg>
